<?xml version="1.0" encoding="UTF-8" standalone="no"?> <svg id="Layer_1" data-name="Layer 1" xmlns="http://www.w3.org/2000/svg" viewBox="0 0 512 512"><defs><style>.cls-1{fill:#eaeff0;}.cls-2{fill:#2d4a60;}.cls-3{fill:#263f52;}.cls-4{fill:#00aae5;}.cls-5{fill:#009ae0;}.cls-6{fill:#bac2c6;}</style></defs><title>Laptop</title><path class="cls-1" d="M510.016,399.135,458.667,320c-2.005-2.807-7.224-10.667-10.667-10.667H64c-3.443,0-8.661,7.859-10.667,10.667L1.984,399.135A10.656,10.656,0,0,0,0,405.333V416a21.354,21.354,0,0,0,21.333,21.333H490.667A21.354,21.354,0,0,0,512,416V405.333A10.656,10.656,0,0,0,510.016,399.135Z"/><path class="cls-2" d="M427.135,74.667H84.865A31.568,31.568,0,0,0,53.333,106.2V320H458.667V106.2A31.568,31.568,0,0,0,427.135,74.667Z"/><path class="cls-3" d="M53.333,106.2V320H458.667L65.01,81.734A31.475,31.475,0,0,0,53.333,106.2Z"/><path class="cls-4" d="M426.667,96H85.333a10.667,10.667,0,0,0-10.667,10.667v192H437.333v-192A10.667,10.667,0,0,0,426.667,96Z"/><path class="cls-5" d="M88.579,96H85.333a10.667,10.667,0,0,0-10.667,10.667v192H423.421Z"/><path class="cls-6" d="M21.333,437.333H490.667A21.354,21.354,0,0,0,512,416V405.333H0V416A21.354,21.354,0,0,0,21.333,437.333Z"/><path class="cls-6" d="M53.19,373.333H458.81a5.333,5.333,0,0,0,4.621-8l-16.9-29.329a10.667,10.667,0,0,0-9.242-5.341H74.71a10.667,10.667,0,0,0-9.242,5.341l-16.9,29.329A5.333,5.333,0,0,0,53.19,373.333Z"/><path class="cls-6" d="M220.456,381.082l-1.514,16A2.667,2.667,0,0,0,221.6,400H290.4a2.667,2.667,0,0,0,2.655-2.918l-1.514-16a2.667,2.667,0,0,0-2.655-2.416H223.111A2.667,2.667,0,0,0,220.456,381.082Z"/></svg>